<svg width="328" height="53" viewBox="0 0 328 53" fill="none" xmlns="http://www.w3.org/2000/svg">
<path d="M328 36.8533L319.018 25.3001L327.37 16.3709H324.52L313.218 28.2792V16.3709H310.815V36.8533H313.218V31.5005L317.311 27.1086L325.059 36.8533H328ZM291.493 28.1985V18.5104H297.119C300.93 18.5104 303.093 20.1251 303.093 23.2818C303.093 26.4385 300.93 28.1743 297.119 28.1743L291.493 28.1985ZM305.579 36.8533L300.607 29.8616C303.64 28.9251 305.355 26.6323 305.355 23.2495C305.355 18.8817 302.322 16.3709 297.069 16.3709H289.082V36.8533H291.476V30.3945H297.119C297.6 30.3945 298.055 30.3945 298.47 30.338L302.886 36.8855L305.579 36.8533ZM270.356 29.458L275.062 18.9221L279.843 29.458H270.356ZM283.174 36.8613H285.792L276.405 16.3709H273.919L264.481 36.8533H267.042L269.378 31.6216H280.829L283.174 36.8613ZM256.411 28.2066H251V18.5184H256.411C260.198 18.5184 262.385 20.1331 262.385 23.2899C262.385 26.4466 260.198 28.1985 256.411 28.1985V28.2066ZM256.502 16.379H248.598V36.8613H251V30.4026H256.519C261.714 30.4026 264.722 27.7948 264.722 23.2899C264.705 18.8818 261.697 16.3709 256.519 16.3709L256.502 16.379ZM223.881 16.379V36.8936H229.375V29.022H237.876V36.8936H243.369V16.3386H237.876V24.7108H229.375V16.3386L223.881 16.379ZM218.321 23.4675L221.503 19.7456C219.259 17.5221 216.202 16.2562 213.002 16.2256C206.581 16.2256 201.742 20.6821 201.742 26.5919C201.742 32.6228 206.456 37.0874 212.795 37.0874C216.107 36.989 219.246 35.6262 221.536 33.2929L218.321 29.9182C216.963 31.3462 215.095 32.2129 213.101 32.3402C211.563 32.2842 210.107 31.6494 209.039 30.5692C207.971 29.489 207.374 28.0474 207.374 26.5475C207.374 25.0476 207.971 23.606 209.039 22.5258C210.107 21.4455 211.563 20.8108 213.101 20.7548C214.117 20.8119 215.108 21.08 216.008 21.5408C216.908 22.0017 217.697 22.6449 218.321 23.4271V23.4675ZM182.817 16.379V36.8936H199.728V32.6228H188.31V28.7556H198.353V24.5089H188.31V20.5772H199.43V16.3063L182.817 16.379ZM162.542 16.379V20.8032H168.789V36.8936H174.283V20.7629H180.596V16.3386L162.542 16.379ZM146.774 29.458L151.48 18.9221L156.261 29.458H146.774ZM159.576 36.8533H162.186L152.806 16.3709H150.32L140.883 36.8533H143.435L145.78 31.6216H157.222L159.576 36.8533ZM128.173 16.3709V36.8533H139.773V34.6896H130.575V16.3709H128.173ZM112.645 16.3709V36.8533H124.245V34.6896H115.04V16.3709H112.645ZM103.87 16.3709V36.8533H106.273V16.3709H103.87ZM98.0704 20.9889L99.5121 19.2935C97.4237 17.3943 94.6796 16.3283 91.8229 16.3063C90.4074 16.2618 88.9971 16.4942 87.6753 16.9898C86.3535 17.4854 85.1471 18.2341 84.1273 19.1917C83.1075 20.1493 82.2951 21.2963 81.738 22.5651C81.1809 23.8338 80.8904 25.1985 80.8838 26.5784C80.8771 27.9584 81.1544 29.3257 81.6993 30.5994C82.2441 31.8732 83.0455 33.0276 84.056 33.9945C85.0665 34.9614 86.2657 35.7211 87.5826 36.2287C88.8996 36.7364 90.3076 36.9817 91.7235 36.9501C94.6372 36.9115 97.4281 35.8012 99.537 33.8418L98.0704 32.2917C96.383 33.8335 94.1609 34.6984 91.8478 34.7138C90.7272 34.7481 89.611 34.5628 88.5653 34.1687C87.5197 33.7745 86.566 33.1797 85.7608 32.4195C84.9557 31.6593 84.3155 30.7492 83.8784 29.7433C83.4412 28.7373 83.2159 27.656 83.2159 26.5636C83.2159 25.4712 83.4412 24.3899 83.8784 23.384C84.3155 22.3781 84.9557 21.468 85.7608 20.7078C86.566 19.9476 87.5197 19.3527 88.5653 18.9586C89.611 18.5645 90.7272 18.3791 91.8478 18.4135C94.1909 18.4432 96.4284 19.368 98.0787 20.9889H98.0704Z" fill="currentColor"/>
<path d="M37.4829 9.32692L35.4094 5.83254L36.3581 5.29885L38.4317 8.79323L37.4829 9.32692ZM38.4317 9.91143L37.4829 9.39363L38.4317 8.85994L38.4512 8.89489L38.4708 8.93301V8.96795V9.00289V9.03784V9.07278V9.10773V9.14267V9.17761V9.21256V9.2475V9.59059V9.62871V9.66365V9.69542V9.73036V9.7653V9.80343V9.83837V9.87014V9.90826L38.4512 9.9432L38.4317 9.91143ZM35.4094 12.888L37.4829 9.39363L38.4317 9.92732L36.3581 13.4217L35.4094 12.888ZM35.3638 13.9808V12.9039H35.4094L36.3581 13.4376L36.3353 13.4725L36.3125 13.5043L36.2897 13.5361L36.2669 13.5678L36.2408 13.5964L36.2147 13.6218L36.1886 13.6504L36.1625 13.6727L36.1365 13.6981L36.1071 13.7203L36.081 13.7425L36.0517 13.7648L36.0223 13.7838L35.993 13.8029L35.9637 13.822L35.9343 13.841H35.9017H35.8724H35.8398H35.8072H35.7746H35.742H35.7061H35.6702H35.6344H35.5985H35.5627H35.5268H35.4844H35.3638V13.9808ZM31.2135 12.9134H35.3638V13.9808H31.2135V12.9134ZM30.2354 13.4217L31.1711 12.888H31.2135V13.9554H31.0929H31.0537H31.0179H30.9787H30.9429H30.907H30.8712H30.8386H30.806H30.7734H30.7408H30.7082H30.6755H30.6462L30.6169 13.9363L30.5843 13.9173L30.5549 13.8982L30.5288 13.8791L30.4995 13.8569L30.4702 13.8347L30.4441 13.8124L30.4147 13.787L30.3886 13.7648L30.3626 13.7362L30.3365 13.7108L30.3137 13.6822L30.2876 13.6504L30.2648 13.6187L30.2419 13.5869L30.2354 13.4217ZM29.0911 9.39363L31.1646 12.888L30.2159 13.4217L28.1391 9.92732L29.0911 9.39363ZM28.1423 8.80912L29.0911 9.3301L28.1423 9.86378L28.1195 9.82884V9.7939L28.1032 9.75895L28.0869 9.72401V9.68589V9.65094V9.616V9.58105V9.54611V9.51117V9.4794V9.44446V9.16491V9.13314V9.0982V9.06325V9.02831V8.99336V8.95842V8.92348V8.88853L28.1032 8.85359L28.1195 8.81864V8.78052L28.1423 8.80912ZM31.1646 5.84207L29.0911 9.33645L28.1391 8.80276L30.2159 5.30838L31.1646 5.84207ZM31.207 4.74928V5.81666H31.1613L30.2126 5.28297L30.2322 5.24802L30.255 5.21626L30.2811 5.18449L30.3039 5.1559L30.3267 5.12731L30.3528 5.09872L30.3789 5.07331L30.4049 5.04789L30.4343 5.02248L30.4604 5.00024L30.4897 4.978L30.5191 4.95577L30.5451 4.93671L30.5745 4.91765L30.6071 4.89859L30.6364 4.8827L30.669 4.86364L30.6984 4.84776H30.731H30.7636H30.7962H30.8288H30.8614H30.8972H30.9331H30.969H31.0081H31.044H31.0831H31.2037L31.207 4.74928ZM35.3573 5.81666H31.2135V4.7334H35.3638L35.3573 5.81666ZM36.3353 5.30838L35.3866 5.84207H35.341V4.7334H35.4616H35.504H35.5398H35.5757H35.6116H35.6507H35.6833H35.7159H35.7517H35.7843H35.817H35.8496L35.8789 4.74928L35.9115 4.76834L35.9408 4.78423L35.9702 4.80329L36.0028 4.82235L36.0289 4.84141L36.0582 4.86364L36.0843 4.88588L36.1136 4.90812L36.143 4.93353L36.1658 4.95894L36.1919 4.98436L36.218 5.01295L36.244 5.04154L36.2669 5.07013L36.2897 5.1019L36.3125 5.13366L36.3353 5.30838Z" fill="#A1F01F"/>
<path fill-rule="evenodd" clip-rule="evenodd" d="M34.262 50.9286C34.262 51.1266 34.2018 51.32 34.089 51.4846C33.9761 51.6491 33.8157 51.7774 33.6281 51.8531C33.4404 51.9289 33.2339 51.9487 33.0347 51.9101C32.8355 51.8715 32.6525 51.7762 32.5089 51.6362C32.3652 51.4963 32.2674 51.318 32.2278 51.1239C32.1882 50.9297 32.2085 50.7285 32.2863 50.5457C32.364 50.3629 32.4956 50.2066 32.6645 50.0966C32.8334 49.9867 33.0319 49.928 33.2351 49.928C33.37 49.9276 33.5038 49.9532 33.6286 50.0033C33.7534 50.0534 33.8667 50.1271 33.9622 50.2201C34.0576 50.3131 34.1333 50.4236 34.1847 50.5452C34.2362 50.6668 34.2625 50.7971 34.262 50.9286ZM35.3575 50.9286C35.3573 51.4754 35.1345 51.9998 34.738 52.3867C34.4413 52.6763 34.0631 52.8735 33.6514 52.9535C33.2396 53.0336 32.8127 52.9928 32.4247 52.8364C32.0367 52.6799 31.705 52.4149 31.4717 52.0747C31.2383 51.7346 31.1138 51.3346 31.1138 50.9255C31.1138 50.5163 31.2383 50.1164 31.4717 49.7762C31.705 49.4361 32.0367 49.171 32.4247 49.0146C32.8127 48.8581 33.2396 48.8173 33.6514 48.8974C34.0631 48.9774 34.4413 49.1747 34.738 49.4642C34.9351 49.6565 35.0913 49.8849 35.1976 50.1362C35.3039 50.3875 35.3582 50.6568 35.3575 50.9286Z" fill="#A1F01F"/>
<path d="M33.8379 13.4375H32.7424V49.8108H33.8379V13.4375Z" fill="#A1F01F"/>
<path d="M33.0427 15.4678H28.4294V16.5351H33.0427V15.4678Z" fill="#A1F01F"/>
<path d="M29.3651 10.6162H27.4741V11.6836H29.3651V10.6162Z" fill="#A1F01F"/>
<path d="M25.0713 8.7041H23.9758V10.2575H25.0713V8.7041Z" fill="#A1F01F"/>
<path fill-rule="evenodd" clip-rule="evenodd" d="M26.8088 50.9297C26.8088 51.1276 26.7486 51.321 26.6357 51.4856C26.5229 51.6502 26.3625 51.7784 26.1749 51.8542C25.9872 51.9299 25.7807 51.9497 25.5815 51.9111C25.3823 51.8725 25.1993 51.7772 25.0557 51.6372C24.912 51.4973 24.8142 51.319 24.7746 51.1249C24.735 50.9308 24.7553 50.7296 24.833 50.5467C24.9108 50.3639 25.0424 50.2076 25.2113 50.0976C25.3802 49.9877 25.5787 49.929 25.7818 49.929C25.9168 49.9286 26.0506 49.9542 26.1754 50.0043C26.3002 50.0544 26.4135 50.1281 26.509 50.2211C26.6044 50.3142 26.6801 50.4246 26.7315 50.5462C26.783 50.6678 26.8093 50.7981 26.8088 50.9297ZM27.9043 50.9297C27.9045 51.2012 27.8496 51.4701 27.7428 51.7209C27.6359 51.9717 27.4791 52.1994 27.2816 52.3909C27.0857 52.5841 26.8524 52.7374 26.5952 52.8421C26.3381 52.9468 26.0622 53.0007 25.7835 53.0007C25.5048 53.0007 25.2289 52.9468 24.9717 52.8421C24.7146 52.7374 24.4813 52.5841 24.2854 52.3909C24.0879 52.1994 23.9311 51.9717 23.8241 51.7209C23.7172 51.4701 23.6621 51.2012 23.6621 50.9297C23.6621 50.6581 23.7172 50.3892 23.8241 50.1384C23.9311 49.8877 24.0879 49.6599 24.2854 49.4684C24.4817 49.276 24.7152 49.1233 24.9722 49.0191C25.2293 48.915 25.505 48.8613 25.7835 48.8613C26.0619 48.8613 26.3376 48.915 26.5947 49.0191C26.8518 49.1233 27.0852 49.276 27.2816 49.4684C27.4794 49.6597 27.6364 49.8873 27.7433 50.1382C27.8502 50.389 27.9049 50.6581 27.9043 50.9297Z" fill="#A1F01F"/>
</svg>
